<?xml version="1.0" encoding="UTF-8"?>
<svg xmlns="http://www.w3.org/2000/svg" version="1.1" viewBox="0 0 1000 1000">
  <!-- Generator: Adobe Illustrator 29.5.1, SVG Export Plug-In . SVG Version: 2.1.0 Build 141)  -->
  <defs>
    <style>
      .st0 {
        fill: #3cc;
      }

      .st1 {
        display: none;
      }
    </style>
  </defs>
  <g id="Camada_1">
    <g>
      <g>
        <path class="st0" d="M925.49,564.92l-160.39-22.2-22.64,80.68,52.07,30.53-21.56,42.76-72.77-41.56-28.78,45.3,43.64,44.5c-24.69,25.54-54.64,46.98-87.01,62.09l-21.81-24.12c-39.47,19.99-83.59,33.45-128.24,32.31v118.51l60.45-8.5-5.17-49.26,47.68-10.89,22.58,46.66,67.23-30.75-10.99-33.6,27.31-12.5c3.78,5.78,13.35,26.07,21.61,22.38,4.13-1.84,50.64-36.33,52.09-39.25l-23.58-31.77,41.36-45.46,54.99,35.76,41.56-64.86-.48-3.62-24.6-15.71,19.64-53.45,49.44,10.93c.86-23.21,11.72-50.1,11.29-73.05-.09-4.86.6-10.35-4.91-11.88Z"/>
        <path class="st0" d="M621.72,234.08c13.55,8.3,26.33,18,39.64,26.68l28.38-20.45c9.64,8.7,20.22,16.73,29.05,26.28,4.98,5.38,32.9,39.52,33.99,43.34,3.51,12.33-8.66,10.81-10.38,16.35-1.49,9.3,11.77,16.72,5.58,24.53l-80.22,49.64,20.82,45.44c6-.46,11.48-2.74,16.87-5.16,36.63-16.43,77.76-38.4,113.6-57.31,7.46-3.94,54.72-28.5,55.06-32.67l-37.52-74.51,26.86-24.78-59.2-67.06-40.07,28.6-5.42.04-54.94-47.3,13.2-33.76c-11.44-5.4-84.4-45.86-90.39-41.56l-39.02,119.81c.05,10.58,24.68,18.07,34.12,23.85Z"/>
        <path class="st0" d="M96.93,632.16l29.03,48.25,62.07-39.92c-9.06-7.71-34.33-74.63-30.36-78.49h11.07c-3.71-31.6-3.51-63.09.09-94.67l-56.85-15.39,4.36-33.28c10.94,3.74,26.5,3.37,36.55,6.18,19.4,5.41,23.51,18.02,49.99,12.42,14.21-3.01,28.39-17.3,31.34-31.52,13.32-64.19-70.08-84.3-92.02-25.43-11.53-1.27-77.29-21.1-81.33-15.15l-21.93,112.48,41.18,10.31c-3.31,13.4,7.48,75.1.4,80.98l-44.17,13.75-2.35,4.94,16.01,53.16,46.9-8.61Z"/>
        <path class="st0" d="M231.97,199.2l50.99,42.17c20.4-16.37,80.7-51.75,105.35-51.3,8.47.15,15.24,30.4,17.33,38.09l77.36-12.24-.17-158.68-85.09,3.15-3.43,65.49-68.62,21.11c-6.5-6.61-24.5-37.22-31.64-37.33l-64.76,33.16,19.22,37.12-16.54,19.25Z"/>
        <path class="st0" d="M252.68,757.2c-2.94,2.77-2.24,4.02-6.83,1.61-3.77-1.99-26.57-27.18-27.14-30.93l18.22-24.32-34.04-42.48-83.79,54.97c-1.59,2.25,17.75,28.72,20.89,32.8,5.03,6.55,36.02,44.34,39.89,43.25l10.9-6,45.67,40.14c-1.64,10.81-19.89,30.99-12.83,40.15,2.94,3.82,70.2,40.63,76.61,42.04,2.12.47,4.18.74,6.33.5l46.9-126.76c-29.49-10.62-56.29-28.36-81.35-46.84-1.46.06-16.31,18.95-19.42,21.88Z"/>
        <path class="st0" d="M382.81,747.52l-15.28,125.27,18.65,7.54-2.42,58.91c19.13.8,40.24,5.1,59.42,2.88,3.87-.45,7.59-.06,9.31-4.61l-7.66-181.3c-20.78-2.15-42.01-3.31-62.02-8.69Z"/>
        <path class="st0" d="M124.69,298.45l74.21,38.89c7.18,1.18,16.24-28.98,26.29-29.32,6.79.07,44.55,29.54,54.62,33.74,3.71,1.55,6.09,3.46,10.2.86,2.08-1.32,27.86-34.5,30.48-38.68,1.49-2.37,4.05-3.6,1.44-6.9l-146.3-112.92c-6.89,9.23-38.72,26.31-33.18,38.44,2.51,5.48,18.12,13.69,17.56,20.21l-35.31,55.67Z"/>
        <path class="st0" d="M577.11,271.06c4.7-3.35,2.06-25.28,2.86-32.98l-.52-27.66c-3.16-23.31,1.89-54.62,2.68-78.44l-64.62-11.47c-3.23-.55-8.59,1.29-9.51,4.27v137.81l6.89,4.14,62.22,4.33Z"/>
        <path class="st0" d="M917.92,438.29c-10.58,1.73-20.75,8.63-26.38,17.71-23.09,37.27,19.82,79.36,55.64,58.38,42.18-24.7,15.47-83.41-29.26-76.09Z"/>
        <path class="st0" d="M815.39,446.54l-76.04,17.37c1.42,16.19,7,35.6,2.81,50.85l82.74,8.29c-.21-18.51,2.7-61.59-9.51-76.51Z"/>
        <path class="st0" d="M57.74,304.75c54.02,10.39,51.26-77.5-2.86-64.98-31.51,7.29-31.31,58.41,2.86,64.98Z"/>
        <path class="st0" d="M65.97,661.51c-27.02,5.48-30.95,51.08-2.1,58.68,53.72,14.15,54.62-69.34,2.1-58.68Z"/>
        <path class="st0" d="M367.12,110.89c30.78-19.75-5.2-65.01-32.2-41.81-23.23,19.97,4.03,59.89,32.2,41.81Z"/>
        <path class="st0" d="M923.44,356.99c20.97-22.79-19.39-53.09-35.31-28.45-16.49,25.51,18.96,46.22,35.31,28.45Z"/>
      </g>
      <g>
        <g>
          <path d="M233.96,479.34h7.81c10.83,27.9,21.23,57.29,32.06,85.19,10.66-27.8,23.43-57.73,34.08-85.52l7.21.29,32.92,83.75c10.28-28.18,21.43-56.5,32.47-84.17h8.52c-12.2,32.05-24.85,64.32-37.05,96.38h-7.81l-32.42-84.78-33.83,85.44.19-.18h-7.55l-36.65-96.05"/>
          <g>
            <polygon points="396.17 479.17 396.17 486.87 466.99 486.87 466.99 478.9 396.17 479.17"/>
            <polygon points="395.89 523.43 395.89 531.13 458.35 531.13 458.35 523.69 395.89 523.43"/>
            <polygon points="396.17 567.95 396.17 575.91 467.83 575.91 467.83 567.69 396.17 567.95"/>
          </g>
          <polyline points="481.35 478.59 490.28 478.59 521.53 520.35 553.94 478.82 562.77 478.82 527.1 527.45 561.78 575.15 552.45 575.15 521.69 533.86 489.82 576.21 480.21 576.21 516.24 527.23 481.05 479.05"/>
          <polygon points="587.72 479.43 596.09 479.43 596.09 575.37 587.44 575.37 587.72 479.43"/>
        </g>
        <path d="M715.04,524.51c0,25.44-14.64,48.62-45.65,48.62-28.28,0-44.78-21.18-44.78-47.96s15.93-47.96,45.79-47.96c27.56,0,44.64,20.11,44.64,47.29ZM632.94,524.77c0,21.45,12.78,41.69,36.89,41.69,25.98,0,36.89-19.71,36.89-41.83s-12.34-40.76-36.6-40.76c-25.84,0-37.18,19.85-37.18,40.9Z"/>
      </g>
    </g>
  </g>
  <g id="Camada_2" class="st1">
    <g>
      <path class="st0" d="M800.45,415.73l-113.26-15.68-15.99,56.97,36.76,21.56-15.23,30.19-51.38-29.34-20.32,31.99,30.81,31.42c-17.44,18.03-38.58,33.17-61.44,43.85l-15.4-17.03c-27.87,14.12-59.02,23.62-90.55,22.81v83.69l42.69-6-3.65-34.78,33.67-7.69,15.94,32.95,47.47-21.71-7.76-23.72,19.28-8.82c2.67,4.08,9.43,18.41,15.26,15.81,2.92-1.3,35.76-25.65,36.78-27.71l-16.65-22.43,29.21-32.1,38.83,25.25,29.35-45.8-.34-2.56-17.37-11.09,13.87-37.74,34.91,7.72c.61-16.39,8.27-35.38,7.97-51.58-.06-3.43.42-7.31-3.47-8.39Z"/>
      <path class="st0" d="M585.95,182.11c9.57,5.86,18.59,12.71,27.99,18.84l20.04-14.44c6.8,6.14,14.28,11.81,20.51,18.55,3.52,3.8,23.23,27.9,24,30.61,2.48,8.71-6.11,7.63-7.33,11.55-1.05,6.57,8.31,11.81,3.94,17.32l-56.64,35.05,14.7,32.09c4.24-.32,8.11-1.93,11.91-3.64,25.87-11.6,54.91-27.12,80.22-40.47,5.27-2.78,38.64-20.13,38.88-23.07l-26.49-52.61,18.96-17.5-41.8-47.35-28.3,20.2-3.83.03-38.79-33.4,9.32-23.84c-8.08-3.81-59.6-32.38-63.82-29.34l-27.55,84.6c.03,7.47,17.43,12.76,24.09,16.84Z"/>
      <path class="st0" d="M215.39,463.2l20.5,34.07,43.83-28.19c-6.4-5.45-24.24-52.7-21.44-55.42h7.82c-2.62-22.31-2.48-44.55.06-66.85l-40.14-10.87,3.08-23.5c7.72,2.64,18.72,2.38,25.81,4.36,13.7,3.82,16.6,12.73,35.3,8.77,10.03-2.12,20.05-12.22,22.13-22.26,9.4-45.33-49.48-59.52-64.98-17.96-8.14-.9-54.57-14.9-57.43-10.7l-15.48,79.43,29.08,7.28c-2.34,9.46,5.28,53.03.28,57.18l-31.19,9.71-1.66,3.49,11.31,37.53,33.12-6.08Z"/>
      <path class="st0" d="M310.74,157.49l36,29.78c14.41-11.56,56.98-36.54,74.39-36.23,5.98.11,10.76,21.46,12.24,26.9l54.62-8.64-.12-112.04-60.08,2.23-2.42,46.24-48.46,14.91c-4.59-4.66-17.3-26.28-22.34-26.36l-45.73,23.42,13.57,26.21-11.68,13.59Z"/>
      <path class="st0" d="M325.37,551.49c-2.08,1.95-1.58,2.84-4.82,1.13-2.66-1.4-18.76-19.19-19.16-21.84l12.87-17.17-24.03-30-59.17,38.81c-1.12,1.59,12.53,20.28,14.75,23.16,3.55,4.63,25.44,31.31,28.16,30.54l7.7-4.24,32.25,28.34c-1.16,7.63-14.04,21.88-9.06,28.35,2.08,2.7,49.57,28.69,54.09,29.69,1.5.33,2.95.53,4.47.36l33.12-89.5c-20.83-7.5-39.74-20.02-57.44-33.08-1.03.04-11.52,13.38-13.71,15.45Z"/>
      <path class="st0" d="M388.04,470.05l-30.37,35.59c1.44,6.86,50.88,31.16,60.15,34.44l-11.35,93.03,13.17,5.32-1.71,41.6c13.51.57,28.41,3.6,41.96,2.03,2.73-.32,5.36-.04,6.58-3.25l-7.56-178.89c-26.19-3.06-48.67-16.81-70.86-29.87Z"/>
      <path class="st0" d="M234.99,227.57l52.4,27.46c5.07.84,11.47-20.46,18.57-20.7,4.79.05,31.46,20.86,38.57,23.83,2.62,1.09,4.3,2.44,7.2.61,1.47-.93,19.67-24.36,21.52-27.31,1.05-1.68,2.86-2.54,1.01-4.87l-103.31-79.74c-4.87,6.51-27.34,18.58-23.43,27.14,1.77,3.87,12.79,9.67,12.4,14.27l-24.94,39.31Z"/>
      <path class="st0" d="M554.45,208.23c3.32-2.37,1.46-17.85,2.02-23.29l-.37-19.53c-2.23-16.46,1.34-38.57,1.89-55.39l-45.63-8.1c-2.28-.39-6.06.91-6.72,3.02v97.31l4.87,2.92,43.94,3.06Z"/>
      <path class="st0" d="M795.1,326.3c-7.47,1.22-14.65,6.1-18.63,12.51-16.31,26.32,13.99,56.03,39.29,41.22,29.79-17.44,10.92-58.9-20.66-53.73Z"/>
      <path class="st0" d="M722.7,332.14l-53.69,12.26c1,11.43,4.94,25.14,1.99,35.91l58.42,5.85c-.15-13.07,1.91-43.49-6.71-54.02Z"/>
      <path class="st0" d="M572.61,469.75c-22.81,24.12,13.97,61.62,39.35,36.41,23.93-23.77-14.85-62.31-39.35-36.41Z"/>
      <path class="st0" d="M378.51,380.8c-32.75,2.16-31.18,51.7,1.46,51.7,34.91,0,31.13-53.85-1.46-51.7Z"/>
      <path class="st0" d="M452.44,217.3c-31.71,6.45-13.97,59.65,16.56,45.72,26.91-12.27,14.24-51.99-16.56-45.72Z"/>
      <path class="st0" d="M187.72,232.01c38.15,7.33,36.2-54.73-2.02-45.89-22.25,5.15-22.11,41.25,2.02,45.89Z"/>
      <path class="st0" d="M193.52,483.92c-19.08,3.87-21.85,36.07-1.48,41.43,37.93,9.99,38.57-48.96,1.48-41.43Z"/>
      <path class="st0" d="M518.56,533.47c15.78-17.84-9.32-46.31-28.72-29.69-22.27,19.07,10.57,50.22,28.72,29.69Z"/>
      <path class="st0" d="M406.17,95.13c21.74-13.95-3.67-45.91-22.74-29.52-16.4,14.1,2.84,42.29,22.74,29.52Z"/>
      <path class="st0" d="M612.13,249.56c25.85,4.98,28.24-41.09-2.03-34.24-15.91,3.6-17.3,30.51,2.03,34.24Z"/>
      <path class="st0" d="M798.99,268.9c14.8-16.09-13.69-37.49-24.94-20.09-11.64,18.02,13.39,32.64,24.94,20.09Z"/>
      <path class="st0" d="M599.81,419.11c-12.6,8.93,2.02,30.4,16.13,19.01,12.04-9.72-2.67-28.55-16.13-19.01Z"/>
    </g>
    <g>
      <path class="st0" d="M362.77,716.72l-54.76,204.79c-.62,2.31-2.71,3.92-5.1,3.92h-32.61c-2.39,0-4.48-1.6-5.1-3.9l-36.51-134.77c-1.43-5.27-8.93-5.18-10.23.12l-33.1,134.53c-.58,2.36-2.7,4.02-5.13,4.02h-31.74c-2.38,0-4.47-1.59-5.1-3.89l-55.96-204.79c-.92-3.36,1.61-6.68,5.1-6.68h30.19c2.4,0,4.49,1.61,5.11,3.93l35.32,133.13c1.4,5.28,8.92,5.22,10.23-.09l32.87-132.96c.58-2.36,2.7-4.01,5.13-4.01h31.12c2.38,0,4.47,1.59,5.1,3.89l36.63,133.99c1.43,5.22,8.85,5.17,10.21-.06l34.85-133.87c.61-2.33,2.71-3.95,5.11-3.95h23.27c3.47,0,6,3.29,5.1,6.65Z"/>
      <path class="st0" d="M485.88,875.08l24.09,3.27c2.72.37,4.38,3.17,3.42,5.74-4.55,12.16-12.19,22.37-22.94,30.61-12.2,9.36-27.51,14.04-45.91,14.04-22.09,0-39.86-7.42-53.33-22.25-13.47-14.83-20.2-34.92-20.2-60.27s6.78-44.02,20.35-59.79,31.97-23.67,55.22-23.67,40.28,7.79,52.7,23.35c12.41,15.57,18.62,35.55,18.62,59.95h0c-.09,2.29-1.97,4.1-4.26,4.1h-100.91c-2.39,0-4.33,1.97-4.26,4.36.24,8.83,1.25,16.05,3.02,21.68,2.05,6.52,6.13,12.2,12.23,17.04,6.1,4.84,13.73,7.26,22.88,7.26,16.7,0,28.29-7.61,34.78-22.84.76-1.78,2.59-2.85,4.5-2.59ZM475.86,826.98c2.51,0,4.49-2.17,4.25-4.67-.89-9.36-4.26-17.16-10.09-23.41-6.78-7.26-15.17-10.89-25.16-10.89s-18.14,3.39-24.77,10.18c-5.71,5.85-9.4,13.79-11.04,23.83-.43,2.6,1.58,4.96,4.21,4.96h62.6Z"/>
      <path class="st0" d="M660.11,925.43h-30.82c-1.56,0-3.01-.83-3.79-2.18l-28.87-49.64c-1.65-2.84-5.73-2.92-7.5-.15l-31.76,49.94c-.81,1.27-2.2,2.03-3.7,2.03h-20.45c-3.48,0-5.57-3.85-3.69-6.77l47.16-72.99c.9-1.4.94-3.19.09-4.62l-40.59-68.34c-1.74-2.92.37-6.63,3.77-6.63h30.9c1.59,0,3.05.86,3.83,2.25l21.35,38.2c1.62,2.9,5.75,3.02,7.53.21l24.58-38.63c.81-1.27,2.2-2.03,3.7-2.03h19.64c3.48,0,5.58,3.86,3.68,6.78l-39.07,60.04c-.91,1.4-.95,3.19-.1,4.62l47.89,81.29c1.72,2.93-.39,6.62-3.78,6.62Z"/>
      <path class="st0" d="M707.23,747.46h0c-9.93,0-17.99-8.05-17.99-17.99v-1.42c0-9.93,8.05-17.99,17.99-17.99h0c9.93,0,17.99,8.05,17.99,17.99v1.42c0,9.93-8.05,17.99-17.99,17.99ZM693.79,925.43h-4.54v-125.97c0-18.43,14.94-33.38,33.38-33.38h2.6v127.92c0,17.36-14.07,31.43-31.43,31.43Z"/>
      <path class="st0" d="M830.77,928.74c-23.56,0-41.55-8.47-53.96-25.4-12.41-16.93-18.62-36.34-18.62-58.22,0-23.56,6.86-43.18,20.59-58.85,13.73-15.67,31.84-23.51,54.35-23.51,21.35,0,38.89,7.63,52.62,22.88,13.73,15.25,20.59,35.08,20.59,59.48s-7.13,45.36-21.38,60.66c-14.25,15.3-32.32,22.96-54.19,22.96ZM832.03,899.08c24.19,0,36.29-18.04,36.29-54.12,0-16.3-2.89-29.16-8.68-38.58-5.79-9.41-14.67-14.12-26.66-14.12s-21.62,4.87-27.61,14.59c-6,9.73-8.99,22.64-8.99,38.73,0,17.36,3.18,30.61,9.55,39.76,6.36,9.15,15.07,13.73,26.11,13.73Z"/>
    </g>
  </g>
</svg>